<svg width="68" height="51" viewBox="0 0 68 51" fill="none" xmlns="http://www.w3.org/2000/svg">
<path d="M1.75629 19.6664H2.05278H2.34928H66.133C66.949 19.6664 67.6165 18.9989 67.6165 18.1829C67.6165 17.3669 66.949 16.6994 66.133 16.6994L5.31679 16.6999L18.518 3.49868C19.1115 2.90517 19.1115 2.01517 18.518 1.42218C17.9245 0.828675 17.0345 0.828675 16.4415 1.42218L0.719053 17.1447C0.12555 17.7382 0.12555 18.6282 0.719053 19.2212C1.01555 19.5182 1.38655 19.6662 1.75706 19.6662L1.75629 19.6664Z" fill="black"/>
<path d="M65.6888 31.5338H65.3923H1.6085C0.7925 31.5338 0.125 32.2013 0.125 33.0173C0.125 33.8333 0.7925 34.5008 1.6085 34.5008H62.4248L49.2235 47.7021C48.63 48.2956 48.63 49.1856 49.2235 49.7786C49.52 50.0751 49.891 50.2236 50.262 50.2236C50.633 50.2236 51.0035 50.0751 51.3005 49.7786L67.0243 34.0548C67.6178 33.4613 67.6178 32.5713 67.0243 31.9783C66.6528 31.6078 66.1338 31.4593 65.6888 31.5338Z" fill="black"/>
</svg>
