<svg width="70" height="70" viewBox="0 0 70 70" fill="none" xmlns="http://www.w3.org/2000/svg">
<path d="M63.94 31.68C63.94 15.761 50.958 2.81003 35 2.81004C19.0421 2.81005 6.06007 15.7611 6.06008 31.6801C6.06008 41.1061 10.6321 49.8341 18.3301 55.2551C17.735 55.7742 17.2577 56.4144 16.93 57.1328C16.6023 57.8513 16.4319 58.6314 16.4301 59.4211L16.4301 59.7811L15.7121 59.7811C14.2421 59.7827 12.8328 60.3673 11.7933 61.4066C10.7538 62.4459 10.1689 63.8551 10.1671 65.3251L10.1671 66.4391C10.1671 66.8531 10.5031 67.1891 10.9171 67.1891L59.0821 67.1891C59.281 67.1891 59.4717 67.1101 59.6124 66.9694C59.753 66.8287 59.8321 66.638 59.8321 66.4391L59.8321 65.3251C59.8302 63.8551 59.2454 62.4459 58.2059 61.4066C57.1663 60.3672 55.757 59.7827 54.2871 59.7811L53.5701 59.7811L53.5701 59.4211C53.5685 58.6316 53.3984 57.8515 53.0711 57.133C52.7437 56.4146 52.2668 55.7743 51.6721 55.2551C59.3701 49.8441 63.94 41.116 63.94 31.68ZM58.3321 65.3251L58.3321 65.6891L11.6671 65.6891L11.6671 65.3251C11.6687 64.2529 12.0954 63.225 12.8537 62.467C13.6119 61.7089 14.6399 61.2824 15.7121 61.2811L54.2871 61.2811C55.3593 61.2824 56.3872 61.7088 57.1455 62.4669C57.9038 63.225 58.3305 64.2528 58.3321 65.3251ZM52.0701 59.4211L52.0701 59.7811L17.9301 59.7811L17.9301 59.4211C17.9301 57.1611 19.7741 55.3711 21.9701 55.3711L48.0301 55.3711C49.1025 55.3737 50.13 55.8016 50.8874 56.5608C51.6447 57.32 52.0701 58.3487 52.0701 59.4211ZM50.3321 54.3741C49.607 54.0513 48.8237 53.8798 48.0301 53.8701L21.9701 53.8701C21.0031 53.8701 20.2881 54.1401 19.6701 54.3741C12.0801 49.2631 7.56008 40.8121 7.56008 31.6801C7.56007 16.5901 19.8701 4.31005 35 4.31004C50.13 4.31003 62.44 16.59 62.44 31.68C62.44 40.823 57.9211 49.2741 50.3321 54.3741Z" fill="black"/>
<path d="M31.5439 19.924C31.7428 19.924 31.9336 19.845 32.0742 19.7043C32.2149 19.5637 32.2939 19.3729 32.2939 19.174C32.2939 18.9751 32.2149 18.7843 32.0742 18.6436C31.9336 18.503 31.7428 18.424 31.5439 18.424C30.0342 18.4224 28.5869 17.822 27.5194 16.7545C26.4519 15.687 25.8515 14.2396 25.8499 12.73C25.8499 12.316 25.5079 11.98 25.0939 11.98C24.6799 11.98 24.3439 12.316 24.3439 12.73C24.3423 14.2396 23.7419 15.687 22.6744 16.7545C21.6069 17.822 20.1596 18.4224 18.6499 18.424C18.451 18.424 18.2602 18.503 18.1196 18.6437C17.9789 18.7843 17.8999 18.9751 17.8999 19.174C17.8999 19.3729 17.9789 19.5637 18.1196 19.7043C18.2602 19.845 18.451 19.924 18.6499 19.924C20.1594 19.9256 21.6066 20.5258 22.6741 21.5931C23.7415 22.6604 24.3421 24.1075 24.3439 25.617C24.3439 26.031 24.6859 26.367 25.0999 26.367C25.5139 26.367 25.8499 26.031 25.8499 25.617C25.8518 24.1075 26.4523 22.6604 27.5197 21.5931C28.5872 20.5258 30.0344 19.9256 31.5439 19.924ZM25.0969 22.427C24.3955 21.0186 23.2547 19.8767 21.8469 19.174C23.2547 18.4713 24.3955 17.3294 25.0969 15.921C25.7983 17.3294 26.9391 18.4713 28.3469 19.174C26.9391 19.8767 25.7983 21.0185 25.0969 22.427ZM34.5789 27.413C33.9527 27.4122 33.3524 27.1631 32.9096 26.7203C32.4668 26.2775 32.2177 25.6772 32.2169 25.051C32.2169 24.637 31.8769 24.301 31.4629 24.301C31.0489 24.301 30.7129 24.637 30.7129 25.051C30.7121 25.677 30.4631 26.2772 30.0206 26.7199C29.578 27.1627 28.9779 27.4119 28.3519 27.413C28.153 27.413 27.9622 27.492 27.8216 27.6327C27.6809 27.7733 27.6019 27.9641 27.6019 28.163C27.6019 28.3619 27.6809 28.5527 27.8216 28.6933C27.9622 28.834 28.153 28.913 28.3519 28.913C28.978 28.9138 29.5782 29.1629 30.0209 29.6057C30.4635 30.0486 30.7124 30.6489 30.7129 31.275C30.7129 31.689 31.0529 32.025 31.4669 32.025C31.8809 32.025 32.2169 31.689 32.2169 31.275C32.2174 30.6487 32.4665 30.0482 32.9093 29.6054C33.3521 29.1625 33.9526 28.9135 34.5789 28.913C34.7778 28.913 34.9686 28.834 35.1092 28.6933C35.2499 28.5527 35.3289 28.3619 35.3289 28.163C35.3289 27.9641 35.2499 27.7733 35.1092 27.6327C34.9686 27.492 34.7778 27.413 34.5789 27.413ZM31.4649 28.993C31.2321 28.676 30.9526 28.3962 30.6359 28.163C30.9529 27.93 31.2329 27.65 31.4659 27.333C31.6979 27.65 31.9779 27.93 32.2939 28.163C31.9772 28.3962 31.6977 28.676 31.4649 28.993Z" fill="black"/>
</svg>
