<svg width="116" height="121" viewBox="0 0 116 121" fill="none" xmlns="http://www.w3.org/2000/svg">
<path d="M87.0036 31.5545L88.1498 29.9688H86.1931H72.1523H71.6412L71.3419 30.383L28.9937 88.9724L27.8475 90.5582H29.8042H43.845H44.3561L44.6555 90.144L87.0036 31.5545Z" stroke="#343434" stroke-width="2"/>
<path d="M42.1816 57.6895C49.6055 57.6895 55.559 51.4476 55.559 43.8292C55.559 36.2107 49.6055 29.9688 42.1816 29.9688C34.7578 29.9688 28.8042 36.2107 28.8042 43.8292C28.8042 51.4476 34.7578 57.6895 42.1816 57.6895Z" stroke="#343434" stroke-width="2"/>
<path d="M79.3004 91.6197C86.7243 91.6197 92.6778 85.3778 92.6778 77.7594C92.6778 70.1408 86.7243 63.8989 79.3004 63.8989C71.8766 63.8989 65.9231 70.1408 65.9231 77.7594C65.9231 85.3778 71.8766 91.6197 79.3004 91.6197Z" stroke="#343434" stroke-width="2"/>
</svg>
