<svg width="23" height="23" viewBox="0 0 23 23" fill="none" xmlns="http://www.w3.org/2000/svg">
<path d="M11.834 22.8347C17.9091 22.8347 22.834 17.9099 22.834 11.8347C22.834 5.75961 17.9091 0.834747 11.834 0.834747C5.75885 0.834747 0.833984 5.75961 0.833984 11.8347C0.833984 17.9099 5.75885 22.8347 11.834 22.8347Z" fill="#EA1D26"/>
<path d="M11.834 22.7722C5.77148 22.7722 0.833984 17.8972 0.833984 11.8347C0.833984 5.77225 5.77148 0.834747 11.834 0.834747" fill="#D01F26"/>
<path d="M6.64601 15.6472V10.5847C6.64601 10.5847 6.58351 9.39725 7.27101 8.20975C7.70851 7.45975 8.70851 5.70975 11.771 4.95975C11.771 4.95975 14.8335 5.39725 16.271 8.20975C16.271 8.20975 17.021 9.33475 16.896 10.5847C16.896 11.8972 16.896 15.6472 16.896 15.6472H15.7085C15.7085 15.6472 15.7085 10.8347 15.7085 10.5847C15.7085 10.3972 15.7085 8.77225 14.2085 7.33475C14.021 7.14725 13.271 6.33475 11.7085 6.08475C11.021 6.27225 10.2085 6.45975 9.20851 7.33475C8.52101 8.14725 7.77101 8.95975 7.70851 10.5847C7.70851 12.2097 7.70851 15.6472 7.70851 15.6472H6.64601Z" fill="white"/>
<path d="M9.02344 13.6473H7.96094V14.7098H9.02344V13.6473Z" fill="white"/>
<path d="M9.89648 12.7097H8.83398V13.7722H9.89648V12.7097Z" fill="white"/>
<path d="M11.6465 12.6472H10.584V13.7097H11.6465V12.6472Z" fill="white"/>
<path d="M13.334 12.6472H12.2715V13.7097H13.334V12.6472Z" fill="white"/>
<path d="M15.084 12.7097H14.0215V13.7722H15.084V12.7097Z" fill="white"/>
<path d="M15.959 13.6473H14.8965V14.7098H15.959V13.6473Z" fill="white"/>
<path d="M14.1465 14.6472H13.084V15.7097H14.1465V14.6472Z" fill="white"/>
<path d="M10.7734 14.6472H9.71094V15.7097H10.7734V14.6472Z" fill="white"/>
<path d="M9.89648 15.5847H8.83398V16.6472H9.89648V15.5847Z" fill="white"/>
<path d="M7.89648 16.6472H6.83398V17.7097H7.89648V16.6472Z" fill="white"/>
<path d="M15.084 15.5847H14.0215V16.6472H15.084V15.5847Z" fill="white"/>
<path d="M17.0215 16.5847H15.959V17.6472H17.0215V16.5847Z" fill="white"/>
<path d="M9.71094 12.8347V10.6472C9.71094 10.6472 9.71094 10.1472 9.77344 9.95975C9.89844 9.77225 10.4609 8.27225 11.8984 8.02225C12.2109 8.08475 13.3359 8.33475 14.0234 9.95975C14.0859 10.1472 14.0859 10.2722 14.0859 10.6472C14.0859 11.0222 14.0859 12.8347 14.0859 12.8347H13.0859V10.6472C13.0859 10.6472 13.0859 10.2097 12.8359 9.95975C12.6484 9.64725 12.4609 9.33475 11.8984 9.08475C11.7109 9.14725 11.2734 9.45975 10.9609 9.95975C10.8359 10.2097 10.7734 10.2097 10.7734 10.6472C10.7734 11.0847 10.7734 12.8347 10.7734 12.8347H9.71094Z" fill="white"/>
</svg>
