<?xml version="1.0" standalone="no"?>
<!DOCTYPE svg PUBLIC "-//W3C//DTD SVG 20010904//EN"
 "http://www.w3.org/TR/2001/REC-SVG-20010904/DTD/svg10.dtd">
<svg version="1.0" xmlns="http://www.w3.org/2000/svg"
 width="339.000000pt" height="339.000000pt" viewBox="0 0 339.000000 339.000000"
 preserveAspectRatio="xMidYMid meet">
<metadata>
Created by potrace 1.11, written by Peter Selinger 2001-2013
</metadata>
<g transform="translate(0.000000,339.000000) scale(0.100000,-0.100000)"
fill="#000000" stroke="none">
<path d="M667 2889 l-197 -172 0 -963 c0 -529 3 -969 6 -978 6 -14 81 -16 756
-16 l749 0 65 52 c49 41 62 57 58 72 -5 14 -2 17 7 13 8 -3 81 -33 163 -67
l150 -62 115 56 114 56 -69 0 -69 0 -159 261 c-109 178 -162 257 -167 248 -4
-8 -75 -124 -158 -259 l-149 -245 -254 -3 -255 -2 -103 272 c-57 150 -108 283
-114 294 -10 19 -28 -15 -146 -272 l-135 -294 -122 0 -123 0 0 835 0 835 115
0 115 0 2 -547 3 -547 252 544 252 545 581 3 c388 1 595 -1 622 -8 47 -13 112
-70 138 -120 58 -113 37 -269 -46 -354 -57 -57 -92 -66 -279 -66 l-170 0 -83
98 -83 97 210 3 c236 3 235 2 233 78 -1 77 12 74 -318 74 l-294 0 0 -315 0
-315 -115 0 -115 0 -2 411 -3 410 -178 -383 c-97 -211 -177 -387 -177 -393 0
-5 80 -205 177 -444 l178 -434 3 366 2 367 110 0 110 0 2 -201 3 -200 115 200
115 200 91 1 91 0 114 -195 114 -196 3 196 2 195 115 0 115 0 0 -345 c0 -190
2 -345 6 -345 4 0 494 229 501 235 2 1 30 198 64 438 l62 438 -73 77 c-41 42
-195 200 -344 350 l-270 272 -246 0 -246 0 -102 145 c-100 142 -103 145 -140
145 -20 0 -242 7 -492 15 -250 8 -489 15 -530 15 l-75 0 -198 -171z"/>
<path d="M180 2465 l-165 -144 3 -48 c7 -121 52 -785 58 -846 l6 -68 85 -43
85 -42 -41 -14 -41 -13 -51 -161 c-28 -89 -66 -208 -84 -266 -18 -57 -31 -108
-29 -111 2 -4 139 -89 303 -188 250 -151 306 -181 338 -181 72 0 878 61 901
68 12 4 82 57 154 117 l132 110 -731 3 c-596 2 -733 5 -742 16 -8 9 -12 289
-13 984 l-3 970 -165 -143z"/>
</g>
</svg>
